<svg version="1.1" id="Layer_1" xmlns="http://www.w3.org/2000/svg" xmlns:xlink="http://www.w3.org/1999/xlink" x="0px" y="0px"
	 width="100%" viewBox="0 0 64 64" enable-background="new 0 0 64 64" xml:space="preserve">
<path fill="#000000" opacity="1.000000" stroke="none" 
	d="
M41.000072,65.000000 
	C27.333387,65.000000 14.166720,65.000000 1.000040,65.000000 
	C1.000027,43.666683 1.000027,22.333368 1.000013,1.000040 
	C22.333315,1.000027 43.666630,1.000027 64.999954,1.000013 
	C64.999969,22.333315 64.999969,43.666630 64.999985,64.999969 
	C57.166698,65.000000 49.333393,65.000000 41.000072,65.000000 
M14.253932,50.755630 
	C17.479105,53.664494 20.704277,56.573353 25.017536,60.463589 
	C25.017536,56.025036 24.460707,52.973686 25.146955,50.233677 
	C26.198212,46.036282 24.076027,40.131916 30.015795,39.264805 
	C27.817228,40.986187 27.986635,42.587730 29.968559,44.482918 
	C33.675846,48.027958 37.428768,51.561890 40.780441,55.431545 
	C43.916142,59.051849 47.823387,59.496872 51.982552,58.881054 
	C53.087574,58.717438 54.555794,57.062721 54.811069,55.868923 
	C55.484722,52.718582 54.883690,49.871811 52.090538,47.504826 
	C46.976398,43.170979 42.150803,38.496643 37.146698,33.910961 
	C35.470634,35.033417 34.001415,36.017349 31.907001,36.292027 
	C32.531395,34.520329 35.796947,32.796257 31.735090,30.344957 
	C30.232605,28.521149 28.730118,26.697340 26.836512,24.180573 
	C25.941551,17.892891 25.046593,11.605210 23.980408,4.114547 
	C21.723782,7.030132 19.846350,9.455795 17.313251,11.980903 
	C16.509283,12.645976 15.705314,13.311049 14.467338,14.103785 
	C14.176188,14.274373 14.038715,14.528193 13.257511,15.287117 
	C13.186252,26.388571 13.101807,37.490005 13.085463,48.591537 
	C13.084702,49.107792 13.692786,49.624943 14.253932,50.755630 
M52.780586,17.758425 
	C56.713516,14.390328 54.662270,10.469363 54.589050,7.124158 
	C41.187237,4.903231 35.413578,14.000473 28.599491,22.150639 
	C30.247408,23.638351 31.581593,24.842833 33.231472,26.670092 
	C37.963207,31.386066 38.078953,31.365194 42.708481,26.813015 
	C45.778225,23.794563 48.923634,20.853067 52.780586,17.758425 
z"/>
<path fill="#5A50BC" opacity="1.000000" stroke="none" 
	d="
M32.532196,37.001282 
	C34.001415,36.017349 35.470634,35.033417 37.146698,33.910961 
	C42.150803,38.496643 46.976398,43.170979 52.090538,47.504826 
	C54.883690,49.871811 55.484722,52.718582 54.811069,55.868923 
	C54.555794,57.062721 53.087574,58.717438 51.982552,58.881054 
	C47.823387,59.496872 43.916142,59.051849 40.780441,55.431545 
	C37.428768,51.561890 33.675846,48.027958 29.968559,44.482918 
	C27.986635,42.587730 27.817228,40.986187 30.317616,38.848278 
	C31.257025,37.954929 31.894611,37.478107 32.532196,37.001282 
z"/>
<path fill="#665ACE" opacity="1.000000" stroke="none" 
	d="
M32.915779,26.047312 
	C31.581593,24.842833 30.247408,23.638351 28.599491,22.150639 
	C35.413578,14.000473 41.187237,4.903231 54.589050,7.124158 
	C54.662270,10.469363 56.713516,14.390328 52.265358,17.590927 
	C50.297794,17.981817 48.847733,18.546213 47.392704,19.097494 
	C42.368553,21.001040 40.111408,28.668537 32.915779,26.047312 
z"/>
<path fill="#5C4FC8" opacity="1.000000" stroke="none" 
	d="
M27.227633,24.873529 
	C28.730118,26.697340 30.232605,28.521149 31.812103,30.990883 
	C29.588957,34.069962 27.288799,36.503113 24.569216,38.950996 
	C21.094990,38.294273 18.040188,37.622822 14.982040,36.493591 
	C14.985952,32.343639 14.993212,28.651470 15.286637,25.017702 
	C17.079636,24.402241 18.586468,23.728374 20.397690,22.918381 
	C22.292812,23.460882 24.760223,24.167206 27.227633,24.873529 
z"/>
<path fill="#6659CC" opacity="1.000000" stroke="none" 
	d="
M27.032072,24.527050 
	C24.760223,24.167206 22.292812,23.460882 20.397690,22.918381 
	C18.586468,23.728374 17.079636,24.402241 15.283816,24.589882 
	C14.735135,21.380844 14.475441,18.658030 14.164907,15.669321 
	C14.094352,15.224034 14.074636,15.044641 14.054919,14.865247 
	C14.038715,14.528193 14.176188,14.274373 14.995913,13.961697 
	C16.339296,13.173558 17.154106,12.527509 17.968918,11.881458 
	C19.846350,9.455795 21.723782,7.030132 23.980408,4.114547 
	C25.046593,11.605210 25.941551,17.892891 27.032072,24.527050 
z"/>
<path fill="#665BB8" opacity="1.000000" stroke="none" 
	d="
M14.215746,15.935214 
	C14.475441,18.658030 14.735135,21.380844 14.997650,24.531479 
	C14.993212,28.651470 14.985952,32.343639 14.976347,36.957489 
	C14.980292,40.355270 14.884856,42.836704 15.014398,45.306339 
	C15.271266,50.203400 18.511799,52.629986 23.162779,55.145046 
	C23.834555,49.181473 24.411598,44.058868 24.988640,38.936268 
	C27.288799,36.503113 29.588957,34.069962 31.946270,31.290850 
	C35.796947,32.796257 32.531395,34.520329 32.219597,36.646652 
	C31.894611,37.478107 31.257025,37.954929 30.621542,38.437702 
	C24.076027,40.131916 26.198212,46.036282 25.146955,50.233677 
	C24.460707,52.973686 25.017536,56.025036 25.017536,60.463589 
	C20.704277,56.573353 17.479105,53.664494 14.111286,49.969685 
	C14.051009,38.100899 14.133378,27.018055 14.215746,15.935214 
z"/>
<path fill="#6257BF" opacity="1.000000" stroke="none" 
	d="
M33.073624,26.358702 
	C40.111408,28.668537 42.368553,21.001040 47.392704,19.097494 
	C48.847733,18.546213 50.297794,17.981817 51.892654,17.650278 
	C48.923634,20.853067 45.778225,23.794563 42.708481,26.813015 
	C38.078953,31.365194 37.963207,31.386066 33.073624,26.358702 
z"/>
<path fill="#9B93DB" opacity="1.000000" stroke="none" 
	d="
M14.164907,15.669321 
	C14.133378,27.018055 14.051009,38.100899 13.992976,49.662704 
	C13.692786,49.624943 13.084702,49.107792 13.085463,48.591537 
	C13.101807,37.490005 13.186252,26.388571 13.656216,15.076181 
	C14.074636,15.044641 14.094352,15.224034 14.164907,15.669321 
z"/>
<path fill="#665BB8" opacity="1.000000" stroke="none" 
	d="
M17.641085,11.931181 
	C17.154106,12.527509 16.339296,13.173558 15.212915,13.897865 
	C15.705314,13.311049 16.509283,12.645976 17.641085,11.931181 
z"/>
<path fill="#5548C1" opacity="1.000000" stroke="none" 
	d="
M24.569218,38.950996 
	C24.411598,44.058868 23.834555,49.181473 23.162779,55.145046 
	C18.511799,52.629986 15.271266,50.203400 15.014398,45.306339 
	C14.884856,42.836704 14.980292,40.355270 14.979694,37.415272 
	C18.040188,37.622822 21.094990,38.294273 24.569218,38.950996 
z"/>
</svg>